<?xml version="1.0" encoding="UTF-8"?>
<svg width="201px" height="86px" viewBox="0 0 201 86" version="1.1" xmlns="http://www.w3.org/2000/svg" xmlns:xlink="http://www.w3.org/1999/xlink">
    <!-- Generator: Sketch 52.6 (67491) - http://www.bohemiancoding.com/sketch -->
    <title>HMLR Logo Unit CMYK white background</title>
    <desc>Created with Sketch.</desc>
    <g id="HMLR-Logo-Unit-CMYK-white-background" stroke="none" stroke-width="1" fill="none" fill-rule="evenodd">
        <polyline id="Fill-1" fill="#FFFFFE" points="200.871 0.986 200.871 65.182 189.023 85.645 0.151 85.645 0.151 0.986 200.871 0.986"></polyline>
        <polyline id="Fill-2" fill="#9E9F9E" points="140.77 24.206 138.041 19.479 140.77 14.756 146.229 14.756 148.954 19.479 146.226 24.206 140.77 24.206"></polyline>
        <polyline id="Fill-3" fill="#9E9F9E" points="132.585 38.383 129.856 33.657 132.585 28.931 138.041 28.931 140.77 33.657 138.041 38.383 132.585 38.383"></polyline>
        <polyline id="Fill-4" fill="#9E9F9E" points="173.512 24.206 170.783 19.477 173.512 14.756 178.971 14.756 181.696 19.477 178.969 24.206 173.512 24.206"></polyline>
        <polyline id="Fill-5" fill="#9E9F9E" points="181.699 38.381 178.971 33.657 181.699 28.931 187.154 28.931 189.881 33.657 187.152 38.381 181.699 38.381"></polyline>
        <polyline id="Fill-6" fill="#9E9F9E" points="148.956 66.74 146.229 62.014 148.956 57.287 154.412 57.287 157.141 62.014 154.412 66.74 148.956 66.74"></polyline>
        <polyline id="Fill-7" fill="#9E9F9E" points="165.327 66.74 162.6 62.014 165.327 57.287 170.783 57.287 173.512 62.014 170.783 66.74 165.327 66.74"></polyline>
        <polyline id="Fill-8" fill="#9E9F9E" points="157.141 33.657 154.412 28.931 157.141 24.206 162.6 24.206 165.327 28.931 162.598 33.657 157.141 33.657"></polyline>
        <polyline id="Fill-9" fill="#9E9F9E" points="148.956 47.836 146.229 43.107 148.956 38.381 154.412 38.381 157.141 43.107 154.412 47.836 148.956 47.836"></polyline>
        <polyline id="Fill-10" fill="#9E9F9E" points="165.327 47.836 162.6 43.107 165.327 38.381 170.783 38.381 173.512 43.107 170.783 47.836 165.327 47.836"></polyline>
        <polyline id="Fill-11" fill="#6CB644" points="140.77 33.657 138.041 28.931 140.77 24.206 146.229 24.206 148.954 28.931 146.226 33.657 140.77 33.657"></polyline>
        <polyline id="Fill-12" fill="#6CB644" points="157.141 24.206 154.412 19.479 157.141 14.756 162.6 14.756 165.326 19.479 162.598 24.206 157.141 24.206"></polyline>
        <polyline id="Fill-13" fill="#6CB644" points="140.77 52.563 138.041 47.836 140.77 43.109 140.769 43.109 140.77 43.107 146.229 43.107 148.954 47.836 146.226 52.563 140.77 52.563"></polyline>
        <polyline id="Fill-14" fill="#6CB644" points="173.512 33.657 170.783 28.931 173.512 24.206 178.971 24.206 181.696 28.931 178.969 33.657 173.512 33.657"></polyline>
        <polyline id="Fill-15" fill="#6CB644" points="157.141 62.014 154.412 57.287 157.141 52.563 162.6 52.563 165.327 57.287 162.598 62.014 157.141 62.014"></polyline>
        <polyline id="Fill-16" fill="#6CB644" points="173.512 52.563 170.783 47.836 173.512 43.107 178.971 43.107 181.696 47.836 178.969 52.563 173.512 52.563"></polyline>
        <polyline id="Fill-17" fill="#ABCC3A" points="148.956 19.479 146.229 14.756 148.956 10.032 154.412 10.032 157.141 14.756 154.412 19.479 148.956 19.479"></polyline>
        <polyline id="Fill-18" fill="#ABCC3A" points="165.327 19.477 162.6 14.756 165.327 10.032 170.783 10.032 173.512 14.756 170.783 19.477 165.327 19.477"></polyline>
        <polyline id="Fill-19" fill="#ABCC3A" points="132.585 47.836 129.856 43.109 132.585 38.383 138.041 38.383 140.769 43.109 138.041 47.836 132.585 47.836"></polyline>
        <polyline id="Fill-20" fill="#ABCC3A" points="140.77 62.014 138.041 57.287 140.77 52.563 146.229 52.563 148.954 57.287 146.226 62.014 140.77 62.014"></polyline>
        <polyline id="Fill-21" fill="#ABCC3A" points="181.699 47.836 178.971 43.107 181.699 38.381 187.154 38.381 189.881 43.107 187.152 47.836 181.699 47.836"></polyline>
        <polyline id="Fill-22" fill="#ABCC3A" points="173.512 62.014 170.783 57.287 173.512 52.563 178.971 52.563 181.696 57.287 178.969 62.014 173.512 62.014"></polyline>
        <polyline id="Fill-23" fill="#ABCC3A" points="154.412 38.381 148.956 38.381 146.229 33.657 148.956 28.931 154.412 28.931 157.141 33.657 154.412 38.381"></polyline>
        <polyline id="Fill-24" fill="#ABCC3A" points="170.783 38.381 165.327 38.381 162.6 33.657 165.327 28.931 170.783 28.931 173.512 33.657 170.783 38.381"></polyline>
        <polyline id="Fill-25" fill="#ABCC3A" points="157.141 52.563 154.412 47.836 157.141 43.107 162.6 43.107 165.327 47.836 162.598 52.563 157.141 52.563"></polyline>
        <polyline id="Fill-26" fill="#EAE522" points="154.412 28.931 148.956 28.931 146.229 24.206 148.956 19.479 154.412 19.479 157.141 24.206 154.412 28.931"></polyline>
        <polyline id="Fill-27" fill="#EAE522" points="140.77 43.107 138.041 38.383 140.77 33.657 146.229 33.657 148.954 38.383 146.226 43.107 140.77 43.107"></polyline>
        <polyline id="Fill-28" fill="#EAE522" points="170.783 28.931 165.327 28.931 162.6 24.206 164.328 21.208 165.327 19.479 165.326 19.479 165.327 19.477 170.783 19.477 173.512 24.206 170.783 28.931"></polyline>
        <polyline id="Fill-29" fill="#EAE522" points="154.412 57.287 148.956 57.287 146.229 52.563 148.956 47.836 154.412 47.836 157.141 52.563 154.412 57.287"></polyline>
        <polyline id="Fill-30" fill="#EAE522" points="173.512 43.107 170.783 38.381 173.512 33.657 178.971 33.657 181.696 38.381 178.969 43.107 173.512 43.107"></polyline>
        <polyline id="Fill-31" fill="#EAE522" points="170.783 57.287 165.327 57.287 162.6 52.563 165.327 47.836 170.783 47.836 173.512 52.563 170.783 57.287"></polyline>
        <polyline id="Fill-32" fill="#9E9F9E" points="23.17 31.627 23.17 21.208 13.284 21.208 13.284 31.627 11.064 31.627 11.064 10.434 13.284 10.434 13.284 19.255 23.17 19.255 23.17 10.434 25.39 10.434 25.39 31.627 23.17 31.627"></polyline>
        <path d="M44.983,31.627 L44.983,13.691 L39.507,25.501 C39.241,26.062 39.004,26.863 39.004,27.75 L39.004,29.674 L36.784,29.674 L36.784,27.75 C36.784,26.803 36.518,26.033 36.281,25.501 L30.746,13.691 L30.746,31.627 L28.645,31.627 L28.645,10.434 L31.338,10.434 L37.968,24.257 L44.481,10.434 L47.174,10.434 L47.174,31.627 L44.983,31.627" id="Fill-33" fill="#9E9F9E"></path>
        <polyline id="Fill-34" fill="#9E9F9E" points="55.375 31.627 55.375 10.434 57.594 10.434 57.594 29.674 65.942 29.674 65.942 31.627 55.375 31.627"></polyline>
        <path d="M76.833,24.257 L71.861,24.257 C71.18,24.257 70.766,24.346 70.381,24.672 L69.818,25.145 C69.493,25.441 69.256,25.738 69.256,26.21 L69.256,27.868 C69.256,28.312 69.463,28.639 69.789,28.903 L70.469,29.467 C70.766,29.704 71.18,29.821 71.861,29.821 L76.833,29.821 L76.833,24.257 Z M77.899,31.627 L71.239,31.627 C70.262,31.627 69.463,31.301 68.901,30.799 L68.102,30.058 C67.391,29.407 67.125,28.816 67.125,27.898 L67.125,26.181 C67.125,25.264 67.391,24.672 68.102,24.02 L68.989,23.221 C69.581,22.688 70.381,22.452 71.357,22.452 L76.833,22.452 L76.833,20.972 C76.833,20.351 76.479,19.935 76.064,19.58 L75.561,19.136 C74.88,18.544 74.554,18.425 73.665,18.425 L68.664,18.425 L68.664,16.621 L74.495,16.621 C75.561,16.621 76.182,16.946 76.715,17.39 L77.928,18.455 C78.846,19.255 79.024,19.758 79.024,20.824 L79.024,30.415 L77.899,31.627 Z" id="Fill-35" fill="#9E9F9E"></path>
        <path d="M91.661,31.627 L91.661,22.066 C91.661,21.061 91.307,20.527 90.596,19.876 L89.974,19.314 C89.5,18.87 88.909,18.485 87.813,18.485 L84.024,18.485 L84.024,31.627 L81.834,31.627 L81.834,17.834 L82.959,16.621 L88.879,16.621 C89.915,16.621 90.536,16.857 91.128,17.39 L93.023,19.107 C93.585,19.64 93.851,20.054 93.851,20.942 L93.851,31.627 L91.661,31.627" id="Fill-36" fill="#9E9F9E"></path>
        <path d="M106.489,18.485 L102.404,18.485 C101.368,18.485 100.807,18.751 100.273,19.166 L99.475,19.758 C99.119,20.025 98.557,20.646 98.557,21.859 L98.557,26.389 C98.557,27.602 99.119,28.223 99.475,28.489 L100.273,29.083 C100.807,29.497 101.368,29.763 102.404,29.763 L106.489,29.763 L106.489,18.485 Z M107.555,31.627 L101.428,31.627 C100.54,31.627 99.74,31.39 98.764,30.592 L97.284,29.377 C96.692,28.875 96.366,28.194 96.366,26.803 L96.366,21.445 C96.366,20.054 96.692,19.373 97.284,18.87 L98.764,17.657 C99.74,16.857 100.51,16.621 101.398,16.621 L106.489,16.621 L106.489,10.434 L108.68,10.434 L108.68,30.415 L107.555,31.627 Z" id="Fill-37" fill="#9E9F9E"></path>
        <path d="M21.838,44.702 C21.838,43.902 21.572,43.34 21.068,42.926 L20.299,42.245 C19.796,41.831 19.381,41.683 18.168,41.683 L13.225,41.683 L13.225,50.355 L18.168,50.355 C19.381,50.355 19.796,50.207 20.299,49.793 L21.068,49.142 C21.572,48.728 21.838,48.136 21.838,47.336 L21.838,44.702 Z M22.134,61.012 L22.134,58.94 C22.134,58.348 22.045,57.726 21.661,57.045 L19.085,52.22 L13.225,52.22 L13.225,61.012 L11.064,61.012 L11.064,41.032 L12.248,39.818 L18.759,39.818 C20.92,39.818 21.335,40.469 22.874,41.801 C23.851,42.63 24.117,43.311 24.117,44.288 L24.117,47.84 C24.117,48.846 23.851,49.527 22.844,50.326 L21.275,51.599 L23.969,56.512 C24.383,57.281 24.473,58.081 24.473,58.821 L24.473,61.012 L22.134,61.012 Z" id="Fill-38" fill="#9E9F9E"></path>
        <path d="M37.178,50.829 C37.178,49.615 36.675,48.994 36.32,48.728 L35.58,48.136 C35.077,47.721 34.574,47.426 33.568,47.426 L32.887,47.426 C31.88,47.426 31.377,47.721 30.874,48.136 L30.134,48.728 C29.779,48.994 29.305,49.615 29.305,50.829 L29.305,52.396 L37.178,52.396 L37.178,50.829 Z M38.185,54.173 L29.305,54.173 L29.305,55.802 C29.305,57.016 29.779,57.637 30.134,57.903 L30.874,58.465 C31.406,58.851 31.88,59.147 32.887,59.147 L38.481,59.147 L38.481,61.012 L31.88,61.012 C31.051,61.012 30.341,60.774 29.394,59.975 L27.973,58.762 C27.411,58.258 27.144,57.577 27.144,56.186 L27.144,50.622 C27.144,49.23 27.411,48.551 27.973,48.047 L29.394,46.832 C30.341,46.034 31.051,45.797 31.88,45.797 L34.544,45.797 C35.373,45.797 36.084,46.034 37.031,46.832 L38.451,48.047 C39.014,48.551 39.31,49.23 39.31,50.622 L39.31,52.989 L38.185,54.173 Z" id="Fill-39" fill="#9E9F9E"></path>
        <path d="M52.105,47.869 L48.02,47.869 C46.984,47.869 46.422,48.136 45.889,48.551 L45.09,49.142 C44.735,49.408 44.172,50.029 44.172,51.244 L44.172,55.772 C44.172,56.986 44.735,57.607 45.09,57.874 L45.889,58.465 C46.422,58.879 46.984,59.147 48.02,59.147 L52.105,59.147 L52.105,47.869 Z M53.2,65.361 L51.957,66.457 C51.423,66.9 50.802,67.227 49.737,67.227 L43.314,67.227 L43.314,65.361 L48.878,65.361 C49.766,65.361 50.062,65.215 50.773,64.651 L51.335,64.208 C51.75,63.883 52.105,63.438 52.105,62.817 L52.105,61.012 L47.044,61.012 C46.155,61.012 45.356,60.774 44.379,59.975 L42.899,58.762 C42.308,58.258 41.981,57.577 41.981,56.186 L41.981,50.829 C41.981,49.439 42.308,48.758 42.899,48.254 L44.379,47.04 C45.356,46.241 46.126,46.004 47.014,46.004 L54.295,46.004 L54.295,62.994 C54.295,64.06 54.117,64.533 53.2,65.361 Z" id="Fill-40" fill="#9E9F9E"></path>
        <path d="M57.026,61.012 L59.216,61.012 L59.216,46.004 L57.026,46.004 L57.026,61.012 Z M56.967,43.636 L59.275,43.636 L59.275,40.825 L56.967,40.825 L56.967,43.636 Z" id="Fill-41" fill="#9E9F9E"></path>
        <path d="M73.433,59.531 L72.249,60.448 C71.804,60.774 71.094,61.012 70.295,61.012 L62.244,61.012 L62.244,59.147 L69.791,59.147 C70.442,59.147 70.798,59.028 71.124,58.792 L71.627,58.406 C71.893,58.199 72.159,57.784 72.159,57.341 L72.159,56.186 C72.159,55.21 71.686,54.766 70.383,54.647 L65.056,54.115 C62.776,53.878 61.947,52.604 61.947,51.065 L61.947,49.467 C61.947,48.372 62.273,47.84 62.747,47.484 L63.931,46.566 C64.375,46.241 65.085,46.004 65.884,46.004 L73.314,46.004 L73.314,47.869 L66.388,47.869 C65.736,47.869 65.381,47.987 65.056,48.224 L64.552,48.608 C64.286,48.815 64.02,49.23 64.02,49.674 L64.02,50.592 C64.02,51.51 64.493,51.954 65.736,52.072 L70.769,52.575 C73.314,52.842 74.231,53.938 74.231,55.595 L74.231,57.548 C74.231,58.644 73.906,59.176 73.433,59.531" id="Fill-42" fill="#9E9F9E"></path>
        <path d="M81.432,61.012 C80.367,61.012 79.686,60.774 79.153,60.331 L77.939,59.265 C77.051,58.465 76.904,57.933 76.904,56.838 L76.904,42.749 L79.094,42.749 L79.094,46.004 L83.741,46.004 L83.741,47.869 L79.094,47.869 L79.094,56.631 C79.094,57.133 79.272,57.637 79.952,58.229 L80.307,58.525 C80.989,59.087 81.373,59.147 82.261,59.147 L83.741,59.147 L83.741,61.012 L81.432,61.012" id="Fill-43" fill="#9E9F9E"></path>
        <polyline id="Fill-44" fill="#9E9F9E" points="88.604 47.869 88.604 61.012 86.414 61.012 86.414 47.218 87.538 46.004 93.99 46.004 93.99 47.869 88.604 47.869"></polyline>
        <path d="M107.584,65.361 L106.341,66.457 C105.809,66.9 105.187,67.227 104.122,67.227 L97.55,67.227 L97.55,65.361 L103.263,65.361 C104.151,65.361 104.447,65.215 105.157,64.651 L105.72,64.208 C106.134,63.883 106.489,63.438 106.489,62.817 L106.489,61.012 L101.635,61.012 C100.6,61.012 99.979,60.774 99.385,60.241 L97.491,58.525 C96.929,57.991 96.663,57.577 96.663,56.69 L96.663,46.004 L98.853,46.004 L98.853,55.565 C98.853,56.572 99.208,57.104 99.918,57.755 L100.54,58.317 C101.014,58.762 101.605,59.147 102.7,59.147 L106.489,59.147 L106.489,46.004 L108.68,46.004 L108.68,62.994 C108.68,64.06 108.501,64.533 107.584,65.361" id="Fill-45" fill="#9E9F9E"></path>
    </g>
</svg>