<svg width="96" height="31" xmlns="http://www.w3.org/2000/svg" xmlns:xlink="http://www.w3.org/1999/xlink"><defs><path d="M13.428 5.307l1.45-2.537-1.45-2.537h-2.903L9.074 2.77l1.45 2.537h2.904zM4.72 20.533l1.45-2.537-1.45-2.539H1.817l-1.45 2.539 1.45 2.537H4.72zm4.354 7.613l1.45-2.538-1.45-2.537H6.17l-1.45 2.537 1.45 2.538h2.903zm17.412 0l1.453-2.538-1.453-2.537h-2.901l-1.452 2.537 1.452 2.538h2.9zm4.354-7.613l1.45-2.537-1.45-2.539h-2.901l-1.453 2.539 1.453 2.537h2.9zM19.232 5.307l-1.45-2.537 1.45-2.537h2.901l1.452 2.537-1.452 2.537h-2.9z" id="a"/><path d="M10.525 27.99l-1.451-2.535 1.45-2.538h2.903l1.451 2.538-1.451 2.535h-2.902zm8.707 0l-1.453-2.535 1.453-2.538h2.901l1.452 2.538-1.452 2.535h-2.9zM9.074 5.154H6.172L4.72 2.616 6.172.079h2.902l1.45 2.537-1.45 2.538zM4.72 12.766H1.817l-1.45-2.537 1.45-2.538H4.72l1.45 2.538-1.45 2.537zm26.12 0h-2.901l-1.453-2.537 1.453-2.538h2.9l1.451 2.538-1.45 2.537zm-7.255-7.612l-1.452-2.538L23.585.079h2.9l1.454 2.537-1.453 2.538h-2.901z" id="c"/><path d="M22.22 20.38l1.453-2.539-1.453-2.537h-2.9l-1.452 2.537 1.452 2.539h2.9zm-8.706 5.075l1.453-2.538-1.453-2.537h-2.9L9.16 22.917l1.452 2.538h2.901zM4.809 20.38l1.45-2.539-1.45-2.537H1.906L.455 17.841l1.45 2.538H4.81zM1.907 5.154L.455 7.691l1.45 2.538H4.81l1.45-2.538-1.45-2.537H1.907zm11.61 0l1.45-2.538-1.45-2.537h-2.904l-1.45 2.537 1.45 2.538h2.903zm5.803 5.075l-1.452-2.538 1.452-2.537h2.9l1.453 2.537-1.453 2.538h-2.9z" id="e"/><path d="M22.22 13.151l1.453-2.538-1.453-2.537h-2.9l-1.452 2.537 1.452 2.538h2.9zM9.161 20.764l1.452-2.537-1.452-2.539H6.26l-1.45 2.539 1.45 2.537h2.902zm8.707-15.226l1.452-2.537L17.868.463h-2.901L13.517 3l1.45 2.537h2.9zm0 15.226l1.452-2.537-1.452-2.539h-2.901l-1.453 2.539 1.453 2.537h2.9zM1.906 8.076L.455 10.613l1.45 2.538H4.81l1.45-2.538-1.45-2.537H1.906zM9.162.463L10.613 3 9.161 5.538H6.26L4.81 3.001 6.259.463h2.903z" id="g"/><path d="M4.363 10.305l1.452 2.539h2.9l1.453-2.539-1.452-2.537H5.815l-1.452 2.537zM.01 2.694L1.46 5.23h2.903l1.452-2.536L4.363.156H1.46L.01 2.694zM13.07 5.23h-2.902l-1.45-2.536 1.45-2.538h2.901l1.452 2.538L13.07 5.23z" id="i"/><path d="M10.17 2.846L8.716.307H5.816L4.364 2.846l1.452 2.537h2.9l1.453-2.537zm4.352 7.61L13.07 7.922h-2.9l-1.453 2.536 1.452 2.538h2.901l1.452-2.538zM1.462 7.922h2.902l1.45 2.536-1.45 2.538H1.462L.01 10.457 1.462 7.92z" id="k"/></defs><g fill="none" fill-rule="evenodd"><g transform="translate(63)"><mask id="b" fill="#fff"><use xlink:href="#a"/></mask><path d="M32.006 17.26l-2.053 3.587-.392-.23 2.166-3.786.393.23-.114.198zm-3.297 3.156l2.53-4.422.392.229-2.643 4.62-.393-.229.114-.198zm3.776-2.306l-1.564 2.736-.393-.23 1.678-2.933.392.229-.113.198zm-5.714.624l2.05-3.589.394.23-2.165 3.787-.393-.23.114-.198zm3.296-3.157l-2.527 4.42-.394-.228c.881-1.54 1.76-3.08 2.642-4.619l.393.23-.114.197zm-3.776 2.304l1.564-2.734.394.23-1.678 2.932-.393-.23.113-.198zm4.743-2.306l-3.012 5.27-.394-.228 3.127-5.47.393.23-.114.198zm-3.382 9.296l-2.051 3.59-.394-.23 2.166-3.787.393.23-.114.197zm-.488-.835l-2.528 4.42-.392-.229 2.64-4.619.394.23-.114.198zm.97 1.688l-1.566 2.735-.393-.23 1.678-2.933.394.23-.114.198zm-5.716.62l2.05-3.586.393.23c-.72 1.262-1.442 2.524-2.163 3.785l-.393-.229.113-.2zm.488.84l2.528-4.422.394.23-2.643 4.62-.393-.23.114-.198zm.876-3.995l-1.565 2.733-.392-.228 1.677-2.933.393.23-.113.198zm-.394 4.842l3.015-5.27.392.228c-1.042 1.825-2.085 3.647-3.127 5.47l-.393-.23.113-.198zm-6.773 5.076l2.051-3.588.393.23-2.165 3.786-.392-.23.113-.198zm1.844-3.998l-2.53 4.422-.393-.23 2.642-4.62.394.23-.113.198zm-.878 3.996l1.565-2.734.393.229-1.678 2.933-.393-.23.113-.198zm-1.539-4.843l-2.05 3.587-.395-.23 2.166-3.785.393.23-.114.198zM14.2 32.257l2.528-4.419.393.23-2.642 4.617-.392-.23.113-.198zm.876-3.994l-1.564 2.734-.394-.23 1.678-2.932.394.23-.114.198zm2.9 0l-3.013 5.27-.394-.23 3.127-5.468.394.23-.114.198zm-10.067-.23l2.052-3.589.392.23-2.165 3.786-.393-.229.114-.199zm1.843-3.998l-2.528 4.421-.393-.229 2.64-4.62.394.228-.113.2zm-.876 3.996l1.564-2.735.394.23-1.678 2.933-.394-.23.114-.198zm-1.538-4.845l-2.053 3.587-.393-.229 2.166-3.786.393.23-.113.198zm.963.003l-2.527 4.423-.394-.23 2.642-4.62.393.228-.114.199zm-3.776 2.305l1.564-2.733.393.23c-.56.976-1.118 1.954-1.678 2.931l-.392-.228.113-.2zm4.744-2.305l-3.014 5.27-.394-.23c1.044-1.822 2.086-3.645 3.129-5.468l.393.23-.114.198zm-3.38-5.93l-2.054 3.587-.392-.23c.72-1.261 1.444-2.523 2.165-3.785l.394.23-.114.198zM2.59 20.416l2.527-4.422.392.229-2.64 4.62-.393-.229.114-.198zm1.931.002l1.565-2.735.394.23-1.68 2.933-.392-.23.113-.198zm-1.54-4.845l-2.05 3.589-.394-.23 2.164-3.787.394.23-.114.198zM1.139 19.57l2.528-4.42.394.229-2.643 4.618-.393-.229.114-.198zM.17 17.88l1.562-2.735.394.23-1.676 2.933-.394-.23.114-.198zm4.744-2.307L1.9 20.846l-.393-.23 3.129-5.47.392.23-.113.198zm-1.36-5.305L5.607 6.68l.394.23-2.167 3.787-.392-.23.113-.198zm1.842-3.996l-2.528 4.42-.392-.23 2.64-4.618.393.23-.113.198zm.97 1.69L4.8 10.695l-.392-.23c.559-.977 1.12-1.954 1.678-2.932l.394.23-.115.198zm-5.715.62l2.05-3.587.394.23L.932 9.01l-.394-.228.114-.2zm.487.837L3.667 5l.394.23-2.643 4.618-.393-.23.114-.198zm.875-3.996L.45 8.16.058 7.93c.558-.979 1.118-1.956 1.675-2.935l.394.23-.113.198zm2.9 0L1.9 10.696l-.393-.23 3.129-5.47.392.23-.113.198zm7.348-.23l2.05-3.588.394.23-2.164 3.785-.394-.23.114-.198zm-.965-.003L13.824.77l.394.229-2.642 4.619-.392-.23.113-.198zm1.933.002l1.563-2.735.392.23L13.51 5.62l-.394-.23.114-.198zM11.688.35l-2.05 3.587-.395-.229L11.41-.079l.393.23-.114.198zM9.846 4.346l2.527-4.421.394.229c-.88 1.54-1.762 3.08-2.641 4.62l-.393-.23.113-.198zm-.968-1.69l1.563-2.733.393.23-1.677 2.93-.392-.229.113-.198zm1.45 2.537l3.013-5.27.394.23C12.69 1.974 11.65 3.797 10.608 5.62l-.394-.23.114-.198zm12.97-3.16l-2.051 3.588-.392-.228 2.164-3.787.393.23-.113.198zm-.487-.835l-2.529 4.42-.393-.229L22.532.77l.393.23-.114.198zm-.876 3.995L23.5 2.458l.393.23-1.678 2.933-.393-.23.113-.198zm-3.87-1.684l2.05-3.588.394.23-2.164 3.785-.394-.229.114-.198zm.488.837L21.08-.075l.392.229-2.64 4.62-.394-.23.114-.198zm.876-3.995l-1.564 2.733-.394-.23c.56-.976 1.119-1.954 1.677-2.931l.394.23-.113.198zm-.394 4.842l3.014-5.27.393.23-3.127 5.468-.393-.23.113-.198zm10.64 5.076l2.052-3.587.393.23-2.166 3.785-.392-.23.114-.198zm1.843-3.996l-2.529 4.42-.394-.23c.882-1.538 1.763-3.078 2.643-4.618l.393.23-.113.198zm.967 1.689l-1.564 2.734-.393-.23 1.678-2.932.392.23-.113.198zM29.1 5.423l-2.05 3.588-.394-.228 2.165-3.787.393.23-.114.197zM27.26 9.42L29.79 5l.392.23C29.3 6.767 28.42 8.307 27.54 9.847l-.394-.23.113-.198zm.876-3.996L26.571 8.16l-.393-.229 1.677-2.935.394.23-.114.198zm2.9 0l-3.013 5.272-.394-.23c1.043-1.822 2.085-3.646 3.127-5.47l.393.23-.114.198z" fill="#FFFFFE" mask="url(#b)"/></g><g transform="translate(63 2.691)"><mask id="d" fill="#fff"><use xlink:href="#c"/></mask><path d="M12.338 27.921l2.008-3.508.236.137-2.076 3.629-.236-.138.068-.12zm-.963-.003l2.483-4.342.236.138-2.55 4.46-.237-.137.068-.12zm3.619-2.397l-1.52 2.656-.236-.138 1.588-2.775.236.137-.068.12zm-5.559.714l2.007-3.507.236.136-2.074 3.627-.236-.137.067-.12zm3.14-3.247l-2.483 4.341-.236-.137 2.55-4.46.236.137-.067.12zm-3.619 2.395l1.518-2.654.237.137c-.53.924-1.058 1.85-1.587 2.775l-.237-.139.069-.119zm4.586-2.398l-2.968 5.192-.236-.138 3.036-5.31.237.137-.069.119zm-9.91-.139l2.009-3.508.236.138L3.8 23.104l-.236-.139.069-.119zm-.964-.004L5.15 18.5l.237.138-2.55 4.462-.236-.14.067-.118zm3.62-2.396L4.77 23.102l-.237-.14 1.589-2.773.236.139-.069.118zM2.904 17.91L.898 21.416l-.236-.137 2.073-3.627.237.138-.068.12zm-1.687 4.087l2.484-4.341.236.138-2.552 4.46-.236-.138.068-.12zM.25 20.309l1.517-2.656.236.138-1.586 2.774-.236-.137.069-.12zm4.587-2.4l-2.97 5.193-.237-.138 3.039-5.311.237.138-.07.119zm-2.169-5.216L5.15 8.35l.237.138-2.55 4.46-.236-.137.067-.118zm3.62-2.396L4.77 12.952l-.237-.138 1.589-2.774.236.138-.069.119zM2.904 7.759L.898 11.268l-.236-.138 2.073-3.628.237.138-.068.119zm-1.687 4.087l2.484-4.34.236.138-2.552 4.46-.236-.138.068-.12zm.718-4.085L.417 10.416l-.236-.138c.53-.924 1.058-1.85 1.586-2.775l.236.138-.068.12zm2.902 0l-2.97 5.191-.237-.138 3.039-5.31.237.137-.07.12zm-1.204 4.935L5.64 9.187l.236.138L3.8 12.952l-.236-.138.069-.118zM9.672.995L7.19 5.337l-.237-.138L9.504.738l.236.138-.068.119zm-.718 4.087l1.518-2.654.237.137L9.122 5.34 8.885 5.2l.069-.12zM5.083 3.399L7.09-.111l.237.138c-.692 1.21-1.384 2.42-2.077 3.628l-.236-.137.069-.12zM8.222.15L5.74 4.49l-.237-.137 2.55-4.46.237.138-.07.12zm-3.62 2.397L6.122-.11l.236.138L4.77 2.804l-.237-.138.07-.119zm4.589-2.4L6.22 5.34 5.985 5.2 9.022-.11l.236.137-.067.12zM7.987 5.083l2.005-3.51.237.14L8.154 5.34l-.236-.138.069-.119zM16.693.009l2.008-3.51.235.138L16.862.265l-.236-.137.067-.12zm-.965-.005l2.484-4.339.236.138L15.896.261l-.237-.138.069-.12zm3.62-2.397L17.829.265l-.236-.138c.53-.925 1.057-1.852 1.586-2.777l.236.138-.067.12zm-5.559.716l2.006-3.51.237.138-2.074 3.629-.237-.138.068-.12zm3.138-3.247l-2.481 4.34-.236-.137c.85-1.487 1.699-2.974 2.55-4.46l.236.137-.069.12zm-1.931-.004l-1.518 2.654-.237-.137 1.587-2.774.236.138-.068.12zM14.759.008l2.97-5.193.237.138c-1.013 1.77-2.026 3.54-3.038 5.312l-.236-.138.067-.12zM25.4 5.083l2.008-3.51.236.14c-.693 1.209-1.384 2.418-2.075 3.627l-.237-.138.068-.119zm-.963-.003L26.918.74l.235.137-2.55 4.46-.236-.138.069-.119zm1.931.002l1.52-2.654.236.137-1.587 2.774-.237-.138.068-.12zm-3.87-1.683L24.5-.111l.238.138-2.075 3.628-.235-.137.068-.12zm.487.834l2.483-4.34.237.138-2.553 4.46-.236-.138.069-.12zm-.968-1.686L23.535-.11l.236.138-1.587 2.776-.236-.138.068-.119zm1.451 2.535L26.436-.11l.235.138-3.036 5.31-.237-.137.069-.12zm6.285 17.765l2.007-3.509.236.138-2.075 3.629-.236-.138.068-.12zm1.687-4.09L28.956 23.1l-.236-.138 2.552-4.46.236.137-.069.119zm-.719 4.087l1.518-2.655.238.139c-.53.923-1.06 1.848-1.588 2.774l-.236-.138.068-.12zm-3.87-1.683l2.005-3.51.236.139-2.073 3.629-.237-.138.068-.12zm.488.836l2.482-4.341.236.138-2.55 4.46-.236-.137.068-.12zm-.969-1.688l1.52-2.656.236.138c-.53.924-1.058 1.85-1.587 2.774l-.236-.138.067-.118zm1.45 2.535l2.969-5.191.237.138-3.036 5.31-.237-.137.068-.12zm-4.599 1.825l-2.006 3.51-.236-.138 2.074-3.628.236.137-.068.12zm-.487-.836l-2.484 4.342-.236-.138c.85-1.487 1.702-2.974 2.551-4.461l.238.138-.07.12zm.968 1.688l-1.519 2.656-.236-.138 1.587-2.775.236.137-.068.12zm-3.385-2.536l-2.005 3.506-.236-.137 2.073-3.625.237.137-.069.119zm-1.685 4.087l2.483-4.34.236.137-2.551 4.46-.235-.137.067-.12zm.718-4.087l-1.517 2.656-.237-.139c.53-.924 1.058-1.849 1.587-2.773l.236.137-.069.119zm2.9 0l-2.967 5.192-.236-.138 3.036-5.31.237.137-.07.119zm9.679-13.54l-2.007 3.508-.236-.138 2.074-3.628.236.138-.067.12zm-3.14 3.248l2.484-4.343.236.138c-.85 1.488-1.701 2.974-2.552 4.46l-.236-.137.068-.118zm3.619-2.396l-1.52 2.655-.235-.138 1.586-2.774.238.138-.069.12zM29.024 7.76l-2.006 3.509-.237-.138 2.074-3.628.236.138-.067.119zm-1.686 4.087l2.482-4.34.236.138c-.849 1.487-1.7 2.973-2.55 4.46l-.236-.138.068-.12zm.719-4.085l-1.519 2.655-.236-.138 1.587-2.775.236.138-.068.12zm2.9 0l-2.968 5.191-.237-.138 3.036-5.31.237.137-.069.12z" fill="#FFFFFE" mask="url(#d)"/></g><g transform="translate(67.265 2.691)"><mask id="f" fill="#fff"><use xlink:href="#e"/></mask><path d="M20.987 20.224l2.092-3.656.53.31a6078.86 6078.86 0 0 0-2.244 3.925l-.532-.31.154-.269zm1.982-3.915L20.4 20.801l-.53-.31c.906-1.587 1.812-3.174 2.72-4.759l.532.31-.153.267zm.968 1.689l-1.451 2.536-.153.269-.532-.31.153-.269 1.452-2.537.153-.268.53.31-.152.269zm-5.854.541l2.09-3.658.532.31-2.243 3.925-.532-.309.153-.268zm.488.837l2.569-4.49.53.309-2.722 4.76-.53-.31.153-.27zm-.968-1.689l1.451-2.535.153-.269.532.311-.154.268-1.45 2.536-.154.268-.53-.31.152-.269zm1.451 2.537l3.054-5.34.531.309-3.207 5.61-.531-.31.153-.269zm1.933-10.15l2.092-3.656.53.31-2.244 3.925-.532-.31.154-.269zm1.982-3.914L20.4 10.65l-.53-.31 2.72-4.759.532.31-.153.269zm.968 1.687l-1.451 2.538-.153.268-.532-.31.153-.269 1.452-2.536.153-.27.53.31-.152.269zm-3.385-2.536l-2.09 3.657-.532-.31c.748-1.308 1.497-2.617 2.243-3.925l.532.309-.153.269zm-1.981 3.915l2.569-4.49.53.31c-.906 1.586-1.814 3.172-2.722 4.758l-.53-.31.153-.268zm1.014-3.914l-1.45 2.535-.154.268-.53-.309.152-.269 1.451-2.535.153-.268.532.31-.154.268zm-.53 4.762l3.053-5.34.531.31-3.207 5.61-.531-.312.153-.268zM12.28 25.301l2.092-3.658.531.308-2.244 3.927-.532-.309.153-.268zm-.965-.004l2.568-4.49.532.31-2.722 4.758-.531-.31.153-.268zm1.932.002l1.451-2.536.153-.269.532.31-.154.268-1.45 2.537-.154.268-.532-.31.154-.268zm-3.87-1.685l2.092-3.658.53.31-2.244 3.926-.532-.31.154-.268zm.487.839l2.568-4.493.531.31-2.72 4.76-.532-.31.153-.267zm-.967-1.69l1.45-2.536.154-.268.53.31-.152.268-1.451 2.535-.153.27-.532-.31.154-.269zm4.881-2.226l-3.052 5.34-.533-.31c1.07-1.869 2.138-3.738 3.207-5.608l.533.31-.155.268zm-10.205-.313l2.092-3.656.532.31c-.75 1.308-1.498 2.617-2.246 3.925l-.531-.31.153-.269zm-.964-.002l2.567-4.49.531.31c-.906 1.586-1.813 3.17-2.72 4.759l-.53-.31.152-.269zm1.932.002l1.45-2.537.154-.269.532.31-.154.269-1.451 2.537-.153.269-.531-.31.153-.269zM.669 18.54l2.093-3.658.532.31-2.247 3.926-.53-.31.152-.268zm.49.837l2.568-4.49.53.309-2.72 4.759-.531-.309.154-.27zm1.012-3.914l-1.45 2.535-.154.269-.53-.31.152-.269 1.451-2.535.153-.269.532.311-.154.268zm2.9 0l-3.053 5.34-.531-.31 3.207-5.609.532.311-.154.268zm-1.498-5.388l2.092-3.657.532.31-2.246 3.926-.531-.31.153-.269zm1.98-3.916L2.988 10.65l-.53-.31a8396.74 8396.74 0 0 1 2.719-4.76l.531.31-.153.268zm.97 1.689l-1.451 2.538-.153.268-.531-.31.153-.269 1.45-2.536.154-.27.532.31-.154.269zM.669 8.39l2.093-3.658.532.31c-.748 1.31-1.498 2.618-2.247 3.926l-.53-.31.152-.268zm3.436-3.077L1.538 9.804l-.532-.31 2.72-4.758.532.31-.153.267zM.189 7.537L1.64 5.002l.153-.268.532.31-.154.268-1.45 2.535-.154.268-.53-.309.152-.269zm4.883-2.226l-3.053 5.342-.531-.31 3.206-5.61.532.31-.154.268zM14.75 1.92l-2.093 3.66-.53-.31 2.245-3.927.531.31-.153.267zm-3.436 3.076L13.883.507l.532.31-2.722 4.757-.531-.31.153-.269zm3.914-2.223L13.781 5.31l-.155.268-.53-.31.152-.268 1.45-2.537.153-.268.532.31-.154.268zM11.847.235L9.755 3.892l-.532-.31 2.246-3.926.53.31-.152.269zm.963.003l-2.567 4.49-.532-.309L12.432-.34l.531.31-.153.268zM10.88.237L9.428 2.772l-.153.268-.532-.31.154-.268 1.45-2.536.154-.268.53.31-.152.269zm-.531 4.762l3.055-5.34.53.31-3.207 5.608-.533-.31.155-.268z" fill="#FFFFFE" mask="url(#f)"/></g><g transform="translate(67.265 4.844)"><mask id="h" fill="#fff"><use xlink:href="#g"/></mask><path d="M5.835 9.795l-1.972 3.45-.118-.069 2.007-3.51.118.07-.035.059zm-.488-.836L2.9 13.24l-.118-.068 2.482-4.34.117.068-.034.06zm-.599 4.156l1.484-2.595.118.068-1.519 2.656-.117-.069.034-.06zM.875 11.43l1.972-3.447.117.07L.96 11.557.84 11.49l.034-.06zm3.021-3.317L1.45 12.395l-.117-.068c.826-1.448 1.653-2.895 2.481-4.341l.118.068-.035.059zm-3.5 2.465L1.88 7.984l.118.068L.48 10.706l-.118-.068.035-.06zm1.45 2.537l2.935-5.131.118.068-2.968 5.192-.118-.069.034-.06zM10.19 2.184L8.216 5.632l-.118-.068 2.008-3.509.117.069-.034.06zM7.17 5.499l2.449-4.28.117.069c-.828 1.446-1.656 2.892-2.483 4.34l-.118-.07.034-.059zm1.932.003l1.485-2.595.118.068-1.52 2.656-.118-.07.035-.059zM7.285.497L5.313 3.946l-.117-.069L7.201.37l.118.068-.034.06zM5.718 4.654L8.166.374l.118.068L5.8 4.782l-.116-.068.033-.06zM4.75 2.966L6.233.37l.118.068-1.517 2.656-.118-.068.034-.06zM9.218.497L6.283 5.631l-.118-.07L9.135.37l.117.068-.034.06zm7.622 5.007l1.971-3.449.118.069-2.005 3.508-.118-.068.034-.06zm-.965-.005l2.448-4.28.117.068-2.482 4.34-.118-.069.035-.059zm3.5-2.464l-1.483 2.596-.118-.068 1.518-2.656.118.07-.034.058zM15.993.497L14.02 3.946l-.117-.069L15.908.37l.118.068-.034.06zm.964.005l-2.449 4.28-.117-.068 2.482-4.34.118.068-.034.06zm-3.5 2.465L14.94.371l.117.068-1.516 2.656-.118-.069.034-.059zm4.47-2.469L14.99 5.631l-.118-.07 2.97-5.19.117.068-.034.06zm3.267 12.618l1.973-3.45.118.07-2.007 3.508-.118-.068.034-.06zm-.965-.004l2.448-4.28.117.068c-.827 1.447-1.653 2.893-2.482 4.34l-.117-.069.034-.06zm1.933.003l1.485-2.595.118.068c-.506.885-1.014 1.77-1.518 2.656l-.118-.069.033-.06zm-3.873-1.685l1.974-3.447.117.07c-.67 1.168-1.338 2.336-2.007 3.505l-.118-.068.034-.06zm3.021-3.317l-2.448 4.283-.117-.068 2.481-4.342.118.068-.034.059zm-1.932-.002l-1.485 2.595-.118-.068 1.52-2.654.117.068-.034.059zm-.118 5.004l2.936-5.131.118.068c-.99 1.731-1.98 3.459-2.97 5.192l-.118-.069.034-.06zm-.363 4.294l-1.972 3.448-.118-.068 2.005-3.508.118.068-.033.06zm-.49-.837l-2.448 4.28-.118-.069 2.483-4.34.117.07-.034.059zm.97 1.69l-1.484 2.595-.118-.068 1.518-2.656.118.068-.034.06zm-3.384-2.54l-1.973 3.45-.117-.07 2.006-3.508.118.069-.034.06zm-1.568 4.159l2.448-4.283.118.069-2.483 4.34-.117-.068.034-.058zm-.968-1.689l1.484-2.596.117.069-1.518 2.655-.118-.068.035-.06zm4.47-2.468l-2.936 5.133-.118-.068 2.97-5.193.117.069-.034.059zm-9.794 5.005l1.974-3.448.117.068-2.007 3.508-.118-.068.034-.06zM9.7 16.572l-2.447 4.28-.118-.069 2.482-4.34.117.07-.034.059zM9.1 20.729l1.485-2.597.118.069-1.52 2.656-.118-.068.035-.06zm-3.872-1.685l1.971-3.45.118.069-2.005 3.509-.117-.07.033-.058zm.489.837l2.448-4.283.118.069a6989.25 6989.25 0 0 1-2.483 4.34l-.116-.068.033-.058zm.6-4.158l-1.484 2.596-.118-.068 1.517-2.655.118.068-.034.059zM6.2 20.728l2.934-5.132.118.068-2.969 5.192-.118-.07.035-.058z" fill="#FFFFFE" mask="url(#h)"/></g><g transform="translate(72.064 10.227)"><mask id="j" fill="#fff"><use xlink:href="#i"/></mask><path d="M7.55 12.729L9.6 9.14l.395.23-2.166 3.787-.393-.23.114-.198zm-.964-.004l2.528-4.422.394.23-2.643 4.62-.392-.229.113-.199zm1.932.001l1.564-2.734.394.229c-.56.978-1.12 1.955-1.678 2.933l-.394-.229.114-.199zm-1.54-4.843L4.923 11.47l-.393-.23C5.254 9.98 5.976 8.717 6.7 7.456l.392.23-.114.198zm.965.003l-2.528 4.42-.393-.228 2.641-4.62.394.23-.114.198zm-3.777 2.305L5.73 7.456l.393.228-1.678 2.935-.392-.23.113-.198zm4.745-2.308l-3.015 5.271-.393-.229 3.128-5.469.394.228-.114.2zm5.324-5.93l-2.05 3.59-.394-.229 2.163-3.787.394.228-.113.199zm-3.297 3.158l2.528-4.42.393.229-2.641 4.62-.394-.23.114-.199zm1.934.004l1.564-2.734.393.23c-.56.976-1.118 1.954-1.678 2.932l-.393-.23.114-.198zM9 3.43l2.05-3.587.394.23c-.722 1.26-1.443 2.523-2.164 3.784l-.394-.229.114-.198zM12.296.274L9.767 4.693l-.393-.23 2.642-4.617.393.23-.113.198zM10.363.271L8.801 3.007l-.394-.23 1.676-2.934.394.23-.114.198zm2.902 0l-3.016 5.27-.393-.229 3.13-5.469.393.23-.114.198zM5.528 1.954l-2.052 3.59-.394-.23L5.25 1.527l.393.228-.114.199zm-.487-.835l-2.53 4.42-.393-.229L4.76.69l.393.231-.113.198zm.967 1.689L4.444 5.542l-.394-.23 1.68-2.931.392.23-.114.197zM2.625.27L.574 3.857.18 3.628 2.345-.157l.393.23-.113.197zM.782 4.266L3.31-.154l.393.23L1.06 4.692l-.393-.23.114-.197zm-.969-1.687L1.377-.157l.393.23C1.21 1.05.653 2.028.093 3.006l-.393-.23.113-.198zM4.557.27l-3.014 5.27-.392-.229L4.278-.157l.393.23-.114.198z" fill="#FFFFFE" mask="url(#j)"/></g><g transform="translate(72.064 7.536)"><mask id="l" fill="#fff"><use xlink:href="#k"/></mask><path d="M6.904.376L4.897 3.883l-.236-.137L6.735.119l.237.138-.068.12zm.963.003L5.384 4.722l-.236-.139L7.7.123l.237.138-.07.118zM5.935.378L4.416 3.034l-.237-.138L5.767.12l.236.137-.068.12zm1.697 4.935L9.64 1.805l.236.138L7.8 5.57l-.236-.14.068-.118zm-.965-.004L9.15.969l.236.138-2.55 4.458-.238-.137.07-.119zm3.62-2.394L8.77 5.57l-.237-.138 1.587-2.775.237.138-.068.12zM5.7 5.313L8.669.121l.236.137L5.866 5.57l-.236-.138.069-.119zM.375 11.241L2.38 7.733l.237.138-2.076 3.626-.236-.137.069-.12zm3.14-3.25l-2.482 4.342-.236-.138 2.55-4.46.236.137-.068.12zM1.581 7.99L.062 10.645l-.236-.138 1.588-2.774.236.138-.069.119zm3.871 1.684l-2.006 3.508-.236-.137 2.075-3.627.236.136-.069.12zm-3.138 3.248L4.797 8.58l.237.137-2.55 4.462-.237-.138.067-.12zm1.933.002l1.518-2.656.236.138-1.586 2.774-.237-.137.07-.119zm-2.902 0l2.97-5.19.237.137c-1.014 1.77-2.026 3.539-3.038 5.31l-.237-.138.068-.119zm7.736-1.683l2.009-3.508.235.138-2.075 3.626-.237-.137.068-.12zm.489.836l2.484-4.342.235.137c-.85 1.488-1.701 2.975-2.552 4.461l-.236-.138.069-.118zm-.968-1.69l1.518-2.654.237.138c-.53.924-1.058 1.85-1.587 2.774l-.237-.138.069-.12zm3.383 2.54l2.007-3.51.236.137-2.074 3.628-.236-.137.067-.119zm1.686-4.09L11.19 13.18l-.237-.138 2.552-4.461.236.137-.069.12zm.968 1.689l-1.517 2.654-.237-.137c.53-.924 1.058-1.85 1.587-2.775l.236.138-.069.12zm-4.586 2.398l2.968-5.19.237.137-3.038 5.31-.236-.138.069-.119z" fill="#FFFFFE" mask="url(#l)"/></g><g fill="#FFF" fill-rule="nonzero"><path d="M5.835 27.167v-1.09c0-.157-.017-.318-.05-.483a1.726 1.726 0 0 0-.202-.514l-1.355-2.544H1.135v4.63H0V16.64L.625 16h3.427c.285 0 .52.022.705.065.185.043.353.108.503.194.15.086.297.195.441.328.145.132.32.284.522.457.254.218.427.426.518.624.092.198.137.427.137.686v1.874c0 .132-.01.253-.03.365-.02.112-.056.22-.107.324-.05.104-.12.207-.205.308a2.446 2.446 0 0 1-.328.313l-.83.67 1.424 2.59c.107.203.177.407.21.613.033.206.05.405.05.598v1.158H5.834zm-.16-8.592a1.33 1.33 0 0 0-.103-.549 1.044 1.044 0 0 0-.3-.388l-.405-.358a1.361 1.361 0 0 0-.198-.141.946.946 0 0 0-.224-.092 1.72 1.72 0 0 0-.297-.05 4.686 4.686 0 0 0-.408-.014H1.135v4.57H3.74c.157 0 .293-.005.408-.015.114-.01.213-.028.297-.054a1.22 1.22 0 0 0 .224-.091 1.16 1.16 0 0 0 .198-.137l.404-.343c.27-.223.404-.54.404-.952v-1.386zm8.965 4.989H9.956v.86c0 .32.05.567.148.74.1.172.197.294.294.365l.388.297c.071.051.141.098.21.141a1.37 1.37 0 0 0 .502.19c.1.018.215.027.347.027h2.948v.983h-3.474c-.223 0-.435-.038-.636-.114-.2-.077-.425-.221-.674-.435l-.754-.64a1.13 1.13 0 0 1-.328-.498c-.07-.206-.106-.492-.106-.857V21.69c0-.366.035-.65.106-.853.072-.203.18-.37.328-.503l.754-.64c.249-.208.474-.351.674-.43.2-.079.413-.118.636-.118h1.402c.218 0 .428.04.628.118.2.079.428.222.682.43l.746.64c.148.132.26.3.34.503.078.203.117.487.117.853v1.25l-.594.624zm-.533-1.767a1.632 1.632 0 0 0-.156-.735 1.008 1.008 0 0 0-.293-.37l-.389-.312a1.751 1.751 0 0 0-.434-.27c-.157-.07-.368-.103-.632-.103h-.358c-.264 0-.474.034-.629.102a1.777 1.777 0 0 0-.43.27l-.388.313a1.174 1.174 0 0 0-.294.37c-.099.175-.148.42-.148.735v.83h4.151v-.83zm9.263 6.413c0 .143-.008.267-.023.374a1.172 1.172 0 0 1-.084.3 1.15 1.15 0 0 1-.175.279c-.076.09-.175.19-.297.297l-.655.578a1.98 1.98 0 0 1-.48.29c-.178.076-.409.114-.693.114H17.58v-.982h2.932c.117 0 .217-.006.301-.016a1.004 1.004 0 0 0 .453-.171c.072-.048.153-.11.244-.187l.297-.236c.112-.086.207-.189.286-.308a.75.75 0 0 0 .118-.423v-.952h-2.666c-.234 0-.46-.038-.682-.114-.22-.077-.46-.221-.72-.435l-.784-.64a1.186 1.186 0 0 1-.358-.498c-.081-.206-.122-.492-.122-.857v-2.826c0-.366.04-.65.122-.853.081-.204.2-.371.358-.503l.784-.64c.254-.208.49-.35.709-.427.218-.076.444-.114.678-.114h3.839v8.95zm-1.158-7.967h-2.148c-.274 0-.495.032-.663.095a1.753 1.753 0 0 0-.464.263l-.42.312a1.731 1.731 0 0 0-.156.141.953.953 0 0 0-.16.22 1.453 1.453 0 0 0-.121.32c-.033.125-.05.266-.05.424v2.391c0 .158.017.297.05.42.033.121.073.227.122.315.048.09.101.164.16.225.058.061.11.11.156.145l.419.312c.142.112.297.2.464.263.168.063.389.095.663.095h2.148v-5.941zm3.192-2.232v-1.485h1.218v1.485h-1.218zm.03 9.156V19.26h1.158v7.907h-1.158zm9.392-1.828c0 .29-.038.513-.114.67a1.034 1.034 0 0 1-.305.38l-.624.48a1.492 1.492 0 0 1-.442.214 1.949 1.949 0 0 1-.587.084h-4.242v-.983h3.976c.172 0 .31-.015.415-.046.104-.03.2-.078.286-.144l.266-.198a.806.806 0 0 0 .194-.236.646.646 0 0 0 .088-.328v-.61c0-.258-.07-.45-.21-.574-.14-.125-.382-.202-.727-.233l-2.81-.282c-.3-.03-.554-.094-.762-.19a1.562 1.562 0 0 1-.507-.358 1.311 1.311 0 0 1-.282-.484 1.855 1.855 0 0 1-.087-.575v-.845c0-.29.039-.512.118-.667.078-.155.181-.28.308-.377l.625-.48c.117-.086.264-.157.442-.213.177-.056.373-.084.586-.084h3.915v.983h-3.648c-.173 0-.313.015-.42.045a.95.95 0 0 0-.289.138l-.259.205a.806.806 0 0 0-.194.236.646.646 0 0 0-.087.328v.48c0 .244.068.426.205.548.137.122.37.2.701.236l2.65.26c.336.035.619.097.85.186.231.089.419.202.564.339.144.137.249.294.312.472.064.178.095.376.095.594v1.029zm4.121 1.828c-.284 0-.52-.03-.708-.092a1.5 1.5 0 0 1-.495-.266l-.64-.564a2.743 2.743 0 0 1-.286-.297 1.086 1.086 0 0 1-.243-.594 3.484 3.484 0 0 1-.02-.389V17.54h1.158v1.721h2.445v.983h-2.445v4.616c0 .132.03.266.092.403.06.138.18.282.358.435l.19.16c.092.076.174.135.248.179a1.028 1.028 0 0 0 .472.14c.089.006.192.008.308.008h.777v.983h-1.21zm3.626-6.924v6.924h-1.158V19.9l.594-.64h3.405v.983h-2.84zm10.36 7.967c0 .143-.008.267-.023.374a1.084 1.084 0 0 1-.088.3 1.33 1.33 0 0 1-.175.279c-.074.09-.171.19-.293.297l-.655.578a1.98 1.98 0 0 1-.48.29c-.178.076-.409.114-.693.114h-3.459v-.982h3.01c.116 0 .216-.006.3-.016a.943.943 0 0 0 .232-.057c.072-.028.144-.066.218-.114.073-.048.156-.11.247-.187l.297-.236c.112-.086.207-.189.286-.308a.75.75 0 0 0 .118-.423v-.952h-2.56c-.274 0-.5-.032-.677-.095a1.506 1.506 0 0 1-.503-.309l-.998-.906a1.782 1.782 0 0 1-.331-.415c-.074-.135-.11-.32-.11-.553V19.26h1.157v5.035c0 .132.011.251.034.358a1.178 1.178 0 0 0 .278.549c.071.08.153.165.244.25l.328.298c.127.117.276.218.449.305.173.086.404.13.693.13h1.996V19.26h1.158v8.95zM6.376 11.167V5.675h-5.21v5.492H0V0h1.165v4.646h5.21V0H7.55v11.167H6.376zm11.502 0V1.714L14.99 7.937a2.92 2.92 0 0 0-.187.526c-.053.203-.08.424-.08.662v1.013h-1.165V9.125a2.4 2.4 0 0 0-.088-.678 4.648 4.648 0 0 0-.179-.51l-2.917-6.223v9.453H9.27V0h1.417l3.496 7.282L17.611 0h1.424v11.167h-1.157zm6.383 0V0h1.165v10.138h4.403v1.029H24.26zm11.867 0h-3.511a1.97 1.97 0 0 1-.701-.118 1.677 1.677 0 0 1-.533-.316l-.42-.396a1.677 1.677 0 0 1-.399-.515 1.472 1.472 0 0 1-.118-.62v-.907c0-.244.04-.45.118-.62.079-.17.212-.342.4-.515l.465-.426c.157-.138.34-.24.548-.305.208-.066.442-.1.7-.1h2.888v-.776a.732.732 0 0 0-.118-.419 1.614 1.614 0 0 0-.286-.32l-.267-.228a4.227 4.227 0 0 0-.243-.19.852.852 0 0 0-.218-.115 1.145 1.145 0 0 0-.236-.053 2.547 2.547 0 0 0-.3-.016H31.26V3.26h3.07c.284 0 .515.038.693.114.178.077.338.173.48.29l.64.564c.121.106.22.204.293.293.073.089.132.18.175.274.043.094.072.196.088.305.015.109.022.232.022.37v5.057l-.594.64zm-.563-3.885h-2.62c-.178 0-.327.015-.446.046a.822.822 0 0 0-.332.175l-.297.244a1.44 1.44 0 0 0-.213.247.558.558 0 0 0-.084.316v.876c0 .117.026.22.076.309a.87.87 0 0 0 .206.24l.358.29a.707.707 0 0 0 .29.144c.116.03.264.046.441.046h2.62V7.282zm7.815 3.885V6.124c0-.264-.046-.478-.137-.643a2.073 2.073 0 0 0-.42-.507l-.327-.297a1.94 1.94 0 0 0-.45-.305c-.172-.086-.403-.13-.692-.13h-1.996v6.925H38.2V3.9l.594-.64h3.123c.275 0 .502.032.682.095.18.064.347.167.499.309l1.006.906c.07.071.134.14.19.206a.99.99 0 0 1 .217.453c.018.09.027.192.027.309v5.629H43.38zm8.379 0h-3.23c-.233 0-.46-.038-.682-.114-.22-.077-.46-.221-.72-.435l-.784-.64a1.186 1.186 0 0 1-.358-.498c-.081-.206-.122-.492-.122-.857V5.797c0-.366.04-.65.122-.853.081-.204.2-.371.358-.503l.785-.64c.253-.208.49-.35.708-.427.218-.076.444-.114.678-.114h2.681V0h1.158v10.527l-.594.64zm-.564-6.924h-2.148c-.274 0-.495.032-.663.095a1.753 1.753 0 0 0-.464.263l-.42.312a1.731 1.731 0 0 0-.155.141.953.953 0 0 0-.16.22 1.453 1.453 0 0 0-.122.32c-.033.125-.05.266-.05.424v2.391c0 .158.017.297.05.42.033.121.073.227.122.315.048.09.101.164.16.225.058.061.11.11.156.145l.419.312c.142.112.297.2.464.263.168.063.389.095.663.095h2.148V4.243z"/></g></g></svg>