<?xml version="1.0" encoding="UTF-8"?>
<svg width="172px" height="55px" viewBox="0 0 172 55" version="1.1" xmlns="http://www.w3.org/2000/svg" xmlns:xlink="http://www.w3.org/1999/xlink">
    <!-- Generator: Sketch 53.2 (72643) - https://sketchapp.com -->
    <title>#1a1919 logo</title>
    <desc>Created with Sketch.</desc>
    <g id="Page-1" stroke="none" stroke-width="1" fill="none" fill-rule="evenodd">
        <g id="#1a1919-logo">
            <g id="logotype" fill="#1A1919" fill-rule="nonzero">
                <g id="Group">
                    <path d="M9.55095564,48.7254116 L9.55095564,46.9424003 C9.55095564,46.6847143 9.52394058,46.4207981 9.46990967,46.1506435 C9.41587875,45.8804889 9.30574046,45.599948 9.13949149,45.3090123 L6.92007882,41.1444964 L1.85782296,41.1444964 L1.85782296,48.7254116 L0,48.7254116 L0,31.4937919 L1.02242606,30.4464286 L6.63330078,30.4464286 C7.0987979,30.4464286 7.48324288,30.4817559 7.78664725,30.5524118 C8.09005162,30.6230676 8.36435831,30.7290497 8.60957554,30.8703613 C8.85479278,31.011673 9.09585017,31.1903879 9.33275495,31.4065116 C9.56965974,31.6226352 9.85435683,31.872005 10.1868548,32.1546282 C10.6024772,32.5120635 10.8850962,32.8528688 11.0347203,33.1770543 C11.1843444,33.5012398 11.2591553,33.8752943 11.2591553,34.2992292 L11.2591553,37.3665074 C11.2591553,37.5826311 11.2425306,37.7821268 11.2092808,37.9650007 C11.176031,38.1478746 11.1178448,38.3245114 11.0347203,38.4949166 C10.9515958,38.6653218 10.8393794,38.8336464 10.6980678,38.9998954 C10.5567562,39.1661443 10.3780412,39.336547 10.1619176,39.5111084 L8.80283901,40.6083461 L11.1344692,44.8476737 C11.3090306,45.1801716 11.423325,45.5147427 11.477356,45.8513968 C11.5313869,46.188051 11.5584019,46.5143097 11.5584019,46.8301828 L11.5584019,48.7254116 L9.55095564,48.7254116 Z M9.28911482,34.6608189 C9.28911482,34.3116961 9.23300663,34.0124524 9.12078857,33.763079 C9.00857052,33.5137055 8.84440212,33.3017412 8.62827846,33.1271798 L7.9674421,32.5411551 C7.85938027,32.4497182 7.75132006,32.3728292 7.64325823,32.3104858 C7.5351964,32.2481425 7.41258962,32.1982685 7.27543422,32.1608625 C7.13827882,32.1234565 6.9761885,32.0964414 6.78915841,32.0798165 C6.60212832,32.0631916 6.37977366,32.0548793 6.12208775,32.0548793 L1.85782296,32.0548793 L1.85782296,39.5360456 L6.12208775,39.5360456 C6.37977366,39.5360456 6.60212832,39.5277333 6.78915841,39.5111084 C6.9761885,39.4944835 7.13827882,39.4653904 7.27543422,39.4238281 C7.41258962,39.3822659 7.5351964,39.3323919 7.64325823,39.2742048 C7.75132006,39.2160177 7.85938027,39.1412067 7.9674421,39.0497698 L8.62827846,38.4886823 C9.06883823,38.1229346 9.28911482,37.6034144 9.28911482,36.930106 L9.28911482,34.6608189 Z M23.9648612,42.8277588 L16.2966657,42.8277588 L16.2966657,44.2367118 C16.2966657,44.760396 16.3777109,45.1635437 16.5398037,45.446167 C16.7018964,45.7287902 16.8619086,45.928286 17.0198452,46.0446603 L17.6557443,46.5309361 C17.7721186,46.6140606 17.886413,46.6909496 17.9986311,46.7616054 C18.1108491,46.8322612 18.235534,46.8946036 18.3726894,46.9486346 C18.5098448,47.0026655 18.6594666,47.0442271 18.8215594,47.0733207 C18.9836521,47.1024142 19.1727575,47.1169608 19.3888812,47.1169608 L24.2142334,47.1169608 L24.2142334,48.7254116 L18.528547,48.7254116 C18.1627993,48.7254116 17.8157598,48.6630691 17.4874181,48.5383824 C17.1590763,48.4136957 16.791256,48.1767944 16.383946,47.8276716 L15.1495536,46.7803083 C14.9084926,46.5724971 14.7297776,46.3002685 14.6134033,45.9636143 C14.4970291,45.6269602 14.4388428,45.1593919 14.4388428,44.5608956 L14.4388428,39.7604806 C14.4388428,39.1619843 14.4970291,38.6964942 14.6134033,38.3639962 C14.7297776,38.0314983 14.9084926,37.7571916 15.1495536,37.5410679 L16.383946,36.4937047 C16.791256,36.1528943 17.1590763,35.9180711 17.4874181,35.7892282 C17.8157598,35.6603852 18.1627993,35.5959647 18.528547,35.5959647 L20.8227714,35.5959647 C21.1802066,35.5959647 21.52309,35.6603852 21.8514317,35.7892282 C22.1797734,35.9180711 22.5517499,36.1528943 22.9673724,36.4937047 L24.1892962,37.5410679 C24.4303572,37.7571916 24.6153064,38.0314983 24.7441494,38.3639962 C24.8729923,38.6964942 24.9374128,39.1619843 24.9374128,39.7604806 L24.9374128,41.8053327 L23.9648612,42.8277588 Z M23.0920585,39.9350412 C23.0920585,39.6773552 23.0671215,39.4487663 23.0172468,39.2492676 C22.9673721,39.0497688 22.9071078,38.8772881 22.836452,38.7318202 C22.7657961,38.5863524 22.6868291,38.4637456 22.5995484,38.3639962 C22.5122676,38.2642469 22.4312225,38.1852798 22.3564104,38.1270926 L21.7205113,37.6158796 C21.5043876,37.4330057 21.2674864,37.285462 21.0098005,37.1732439 C20.7521146,37.0610259 20.4071532,37.0049177 19.9749058,37.0049177 L19.3888812,37.0049177 C18.9566338,37.0049177 18.6137505,37.0610259 18.3602208,37.1732439 C18.1066911,37.285462 17.871868,37.4330057 17.6557443,37.6158796 L17.0198452,38.1270926 C16.8619086,38.2434669 16.7018964,38.4450408 16.5398037,38.7318202 C16.3777109,39.0185997 16.2966657,39.4196693 16.2966657,39.9350412 L16.2966657,41.2941197 L23.0920585,41.2941197 L23.0920585,39.9350412 Z M38.2540807,50.4336112 C38.2540807,50.6663597 38.2416122,50.8700117 38.2166748,51.0445731 C38.1917375,51.2191345 38.1460197,51.3833029 38.0795201,51.5370832 C38.0130205,51.6908635 37.9174288,51.8425634 37.7927421,51.9921875 C37.6680553,52.1418116 37.505965,52.3039019 37.3064663,52.4784633 L36.2341658,53.4260777 C36.0014172,53.617264 35.739579,53.7751982 35.4486433,53.8998849 C35.1577076,54.0245716 34.7794969,54.0869141 34.3139997,54.0869141 L28.7779367,54.0869141 L28.7779367,52.4784633 L33.5783517,52.4784633 C33.769538,52.4784633 33.9337064,52.470151 34.0708618,52.4535261 C34.2080172,52.4369012 34.3368583,52.40573 34.4573888,52.3600115 C34.5779193,52.314293 34.6963699,52.2519506 34.8127442,52.1729824 C34.9291184,52.0940141 35.0621156,51.9921881 35.2117397,51.8675014 L35.6980155,51.4809745 C35.8808894,51.3396628 36.0367454,51.1713383 36.1655884,50.9759957 C36.2944314,50.7806532 36.3588519,50.5499862 36.3588519,50.2839879 L36.3588519,48.7254116 L31.9948382,48.7254116 C31.6124656,48.7254116 31.2404891,48.6630691 30.8788976,48.5383824 C30.517306,48.4136957 30.1245487,48.1767944 29.7006139,47.8276716 L28.416347,46.7803083 C28.1586611,46.5724971 27.9633215,46.3002685 27.8303223,45.9636143 C27.6973231,45.6269602 27.6308245,45.1593919 27.6308245,44.5608956 L27.6308245,39.9350412 C27.6308245,39.3365449 27.6973231,38.8710547 27.8303223,38.5385568 C27.9633215,38.2060588 28.1586611,37.9317522 28.416347,37.7156285 L29.7006139,36.6682652 C30.1162363,36.3274548 30.5027594,36.0947097 30.8601946,35.970023 C31.2176299,35.8453363 31.5875283,35.7829939 31.969901,35.7829939 L38.2540807,35.7829939 L38.2540807,50.4336112 Z M36.3588519,37.3914446 L32.8427037,37.3914446 C32.3938315,37.3914446 32.0322454,37.4433966 31.7579346,37.5473022 C31.4836238,37.6512079 31.2300979,37.7945954 30.9973494,37.9774693 L30.3115758,38.4886823 C30.2367637,38.5468695 30.1515624,38.6237585 30.0559693,38.7193516 C29.9603761,38.8149448 29.8730967,38.9354735 29.7941284,39.0809413 C29.7151602,39.2264092 29.6486616,39.400968 29.5946307,39.604623 C29.5405998,39.808278 29.5135847,40.038945 29.5135847,40.2966309 L29.5135847,44.2117746 C29.5135847,44.4694605 29.5405998,44.6980494 29.5946307,44.8975481 C29.6486616,45.0970469 29.7151602,45.2695276 29.7941284,45.4149955 C29.8730967,45.5604633 29.9603761,45.6830701 30.0559693,45.7828195 C30.1515624,45.8825689 30.2367637,45.9615359 30.3115758,46.0197231 L30.9973494,46.5309361 C31.2300979,46.71381 31.4836238,46.8571976 31.7579346,46.9611032 C32.0322454,47.0650088 32.3938315,47.1169608 32.8427037,47.1169608 L36.3588519,47.1169608 L36.3588519,37.3914446 Z M41.5833915,33.7381417 L41.5833915,31.3067627 L43.5783692,31.3067627 L43.5783692,33.7381417 L41.5833915,33.7381417 Z M41.6332659,48.7254116 L41.6332659,35.7829939 L43.5284947,35.7829939 L43.5284947,48.7254116 L41.6332659,48.7254116 Z M57.0072545,45.732945 C57.0072545,46.2067546 56.9449121,46.5724969 56.8202254,46.8301828 C56.6955386,47.0878687 56.5292921,47.2956768 56.3214809,47.4536133 L55.2990549,48.2391357 C55.1078686,48.3804474 54.8668112,48.4968199 54.5758755,48.5882568 C54.2849398,48.6796938 53.9649153,48.7254116 53.6157925,48.7254116 L46.6707764,48.7254116 L46.6707764,47.1169608 L53.1793911,47.1169608 C53.4620143,47.1169608 53.6885252,47.0920238 53.8589304,47.0421491 C54.0293356,46.9922744 54.1851916,46.9133074 54.3265033,46.8052455 L54.7629046,46.4810617 C54.8792789,46.3896247 54.985261,46.2607837 55.0808542,46.0945347 C55.1764473,45.9282858 55.2242432,45.7495708 55.2242432,45.5583845 L55.2242432,44.5608956 C55.2242432,44.1369608 55.1099488,43.8231705 54.8813564,43.6195156 C54.6527641,43.4158606 54.2558506,43.2890976 53.6906041,43.2392229 L49.0896868,42.7778843 C48.5992524,42.7280097 48.1836362,42.6241056 47.8428258,42.4661691 C47.5020154,42.3082326 47.2256306,42.112893 47.0136632,41.8801444 C46.8016958,41.6473958 46.6479178,41.3834795 46.5523246,41.0883876 C46.4567315,40.7932957 46.4089356,40.4795055 46.4089356,40.1470075 L46.4089356,38.7629918 C46.4089356,38.2891822 46.4733561,37.925518 46.6021991,37.6719884 C46.731042,37.4184587 46.8993666,37.2127287 47.1071778,37.0547921 L48.1296038,36.2692697 C48.3207902,36.127958 48.5618476,36.0115855 48.8527832,35.9201486 C49.1437189,35.8287116 49.4637434,35.7829939 49.8128663,35.7829939 L56.2217321,35.7829939 L56.2217321,37.3914446 L50.2492676,37.3914446 C49.9666444,37.3914446 49.7380555,37.4163816 49.563494,37.4662563 C49.3889326,37.516131 49.2309985,37.5909419 49.0896868,37.6906913 L48.6657541,38.0273438 C48.5493798,38.1187807 48.4433977,38.2476217 48.3478045,38.4138707 C48.2522114,38.5801196 48.2044155,38.7588346 48.2044155,38.9500209 L48.2044155,39.7355434 C48.2044155,40.1345409 48.3166319,40.4337846 48.541068,40.6332833 C48.7655041,40.8327821 49.147871,40.9616231 49.6881802,41.0198103 L54.0272566,41.443743 C54.5758782,41.5019302 55.0392903,41.6037561 55.4175067,41.749224 C55.7957231,41.8946918 56.1032791,42.079641 56.3401838,42.3040771 C56.5770886,42.5285133 56.7474913,42.7861953 56.8513969,43.077131 C56.9553025,43.3680667 57.0072545,43.6922473 57.0072545,44.0496826 L57.0072545,45.732945 Z M63.7529646,48.7254116 C63.2874675,48.7254116 62.9009444,48.6755376 62.5933838,48.5757882 C62.2858233,48.4760388 62.0156727,48.3305732 61.7829242,48.1393869 L60.7355609,47.2167097 C60.5443746,47.0421483 60.3885185,46.8800579 60.267988,46.7304339 C60.1474575,46.5808098 60.0560219,46.4270318 59.9936786,46.2690953 C59.9313352,46.1111588 59.8897736,45.9407561 59.8689925,45.7578823 C59.8482113,45.5750084 59.8378209,45.3630441 59.8378209,45.1219831 L59.8378209,32.9650879 L61.7330497,32.9650879 L61.7330497,35.7829939 L65.7354737,35.7829939 L65.7354737,37.3914446 L61.7330497,37.3914446 L61.7330497,44.9474226 C61.7330497,45.1635462 61.7829237,45.3838228 61.882673,45.6082589 C61.9824224,45.832695 62.177762,46.0695963 62.4686977,46.3189697 L62.780413,46.5808105 C62.9300371,46.7054973 63.0651123,46.8031671 63.1856428,46.8738229 C63.3061733,46.9444787 63.4287801,46.9985088 63.5534669,47.0359148 C63.6781536,47.0733208 63.8132288,47.0961797 63.9586967,47.1044922 C64.1041645,47.1128046 64.2724891,47.1169608 64.4636754,47.1169608 L65.7354737,47.1169608 L65.7354737,48.7254116 L63.7529646,48.7254116 Z M69.6882151,37.3914446 L69.6882151,48.7254116 L67.7929863,48.7254116 L67.7929863,36.8303571 L68.7655379,35.7829939 L74.3390068,35.7829939 L74.3390068,37.3914446 L69.6882151,37.3914446 Z M86.6457172,50.4336112 C86.6457172,50.6663597 86.6332487,50.8700117 86.6083113,51.0445731 C86.583374,51.2191345 86.5355781,51.3833029 86.4649223,51.5370832 C86.3942665,51.6908635 86.2986748,51.8425634 86.1781443,51.9921875 C86.0576138,52.1418116 85.8976015,52.3039019 85.6981028,52.4784633 L84.6258023,53.4260777 C84.3930537,53.617264 84.1312155,53.7751982 83.8402798,53.8998849 C83.5493441,54.0245716 83.1711334,54.0869141 82.7056362,54.0869141 L77.0448871,54.0869141 L77.0448871,52.4784633 L81.9699882,52.4784633 C82.1611745,52.4784633 82.3253429,52.470151 82.4624983,52.4535261 C82.5996537,52.4369012 82.7264167,52.40573 82.842791,52.3600115 C82.9591652,52.314293 83.0776159,52.2519506 83.1981464,52.1729824 C83.3186769,52.0940141 83.4537521,51.9921881 83.6033762,51.8675014 L84.089652,51.4809745 C84.2725259,51.3396628 84.4283819,51.1713383 84.5572249,50.9759957 C84.6860679,50.7806532 84.7504884,50.5499862 84.7504884,50.2839879 L84.7504884,48.7254116 L80.5610352,48.7254116 C80.112163,48.7254116 79.7422646,48.6734595 79.4513289,48.5695539 C79.1603932,48.4656483 78.8860865,48.2973238 78.6284006,48.0645752 L76.9950126,46.5808105 C76.7539516,46.348062 76.5731586,46.1215512 76.4526281,45.9012713 C76.3320976,45.6809914 76.2718332,45.3796696 76.2718332,44.997297 L76.2718332,35.7829939 L78.167062,35.7829939 L78.167062,44.0247454 C78.167062,44.2408691 78.1857648,44.4362087 78.2231708,44.6107701 C78.2605768,44.7853315 78.316685,44.9453437 78.391497,45.0908116 C78.466309,45.2362794 78.5619008,45.3755109 78.6782751,45.50851 C78.7946493,45.6415092 78.9276465,45.7786626 79.0772706,45.9199742 L79.6134208,46.40625 C79.8212321,46.5974363 80.0664456,46.7636828 80.3490689,46.9049944 C80.6316921,47.046306 81.0099028,47.1169608 81.4837124,47.1169608 L84.7504884,47.1169608 L84.7504884,35.7829939 L86.6457172,35.7829939 L86.6457172,50.4336112 Z" id="Registry"></path>
                    <path d="M10.436227,18.278983 L10.436227,9.28911482 L1.90769741,9.28911482 L1.90769741,18.278983 L0,18.278983 L0,0 L1.90769741,0 L1.90769741,7.6058524 L10.436227,7.6058524 L10.436227,0 L12.356393,0 L12.356393,18.278983 L10.436227,18.278983 Z M29.2638288,18.278983 L29.2638288,2.80543736 L24.5382254,12.9922921 C24.4218512,13.2333531 24.3200252,13.5201283 24.2327445,13.8526263 C24.1454638,14.1851242 24.1018241,14.5467103 24.1018241,14.9373954 L24.1018241,16.5957206 L22.1941267,16.5957206 L22.1941267,14.9373954 C22.1941267,14.5217729 22.1463308,14.1518745 22.0507377,13.827689 C21.9551445,13.5035035 21.8574747,13.2250407 21.7577253,12.9922921 L16.9822475,2.80543736 L16.9822475,18.278983 L15.174299,18.278983 L15.174299,0 L17.4934605,0 L23.2165527,11.9199916 L28.8274275,0 L31.1590576,0 L31.1590576,18.278983 L29.2638288,18.278983 Z M39.7125244,18.278983 L39.7125244,0 L41.6202218,0 L41.6202218,16.5957206 L48.8270787,16.5957206 L48.8270787,18.278983 L39.7125244,18.278983 Z M59.1386196,18.278983 L53.3905901,18.278983 C52.9666552,18.278983 52.5842883,18.2145625 52.243478,18.0857195 C51.9026676,17.9568766 51.6117362,17.7843958 51.3706752,17.5682722 L50.6849016,16.9199044 C50.377341,16.6372812 50.1591425,16.3567403 50.0302996,16.0782732 C49.9014566,15.7998062 49.8370361,15.461079 49.8370361,15.0620815 L49.8370361,13.5783168 C49.8370361,13.1793193 49.9014566,12.8405921 50.0302996,12.5621251 C50.1591425,12.283658 50.377341,12.0031171 50.6849016,11.7204939 L51.4454869,11.0222517 C51.7031728,10.7978156 52.0024165,10.6315691 52.3432268,10.5235073 C52.6840372,10.4154454 53.0664041,10.3614153 53.490339,10.3614153 L58.2159424,10.3614153 L58.2159424,9.08961705 C58.2159424,8.82361869 58.1515219,8.59502979 58.0226789,8.40384347 C57.893836,8.21265715 57.7379799,8.03809835 57.555106,7.88016183 L57.1187047,7.50610352 C56.9690806,7.38141679 56.8360834,7.27751274 56.7197091,7.19438825 C56.6033348,7.11126377 56.4848842,7.04892134 56.3643537,7.0073591 C56.2438232,6.96579685 56.1149822,6.93670372 55.9778268,6.92007882 C55.8406714,6.90345393 55.676503,6.8951416 55.4853167,6.8951416 L51.1711775,6.8951416 L51.1711775,5.33656529 L56.1960275,5.33656529 C56.6615246,5.33656529 57.0397353,5.39890772 57.330671,5.52359445 C57.6216067,5.64828118 57.8834449,5.80621533 58.1161935,5.99740165 L59.1635568,6.92007882 C59.3630555,7.09464024 59.5230678,7.25465248 59.6435983,7.40012033 C59.7641288,7.54558818 59.8597205,7.69521001 59.9303763,7.8489903 C60.0010321,8.0027706 60.048828,8.16901708 60.0737653,8.34773472 C60.0987027,8.52645237 60.1111712,8.72802622 60.1111712,8.95246233 L60.1111712,17.2316197 L59.1386196,18.278983 Z M58.2159424,11.9199916 L53.9267404,11.9199916 C53.6358047,11.9199916 53.3926692,11.9449286 53.1973267,11.9948033 C53.0019841,12.044678 52.8211911,12.1402697 52.6549421,12.2815813 L52.1686663,12.6805769 C52.0273547,12.813576 51.9109821,12.9486513 51.8195452,13.0858067 C51.7281083,13.2229621 51.6823905,13.3954428 51.6823905,13.603254 L51.6823905,15.0371443 C51.6823905,15.2283306 51.7239521,15.3966551 51.8070766,15.542123 C51.8902011,15.6875908 52.0024174,15.8185099 52.1437291,15.9348842 L52.7297538,16.4086914 C52.8544405,16.5167532 53.0123746,16.5957203 53.203561,16.645595 C53.3947473,16.6954697 53.6358047,16.7204067 53.9267404,16.7204067 L58.2159424,16.7204067 L58.2159424,11.9199916 Z M71.0087367,18.278983 L71.0087367,10.0247628 C71.0087367,9.59251551 70.9339258,9.24131983 70.7843018,8.97116525 C70.6346777,8.70101067 70.4060888,8.4246259 70.0985282,8.14200265 L69.5623779,7.65572684 C69.3545667,7.46454052 69.1093532,7.29829405 68.8267299,7.15698242 C68.5441067,7.0156708 68.1658959,6.94501604 67.6920864,6.94501604 L64.4253104,6.94501604 L64.4253104,18.278983 L62.5300816,18.278983 L62.5300816,6.38392857 L63.5026332,5.33656529 L68.6147635,5.33656529 C69.0636358,5.33656529 69.4356122,5.38851731 69.7307042,5.49242292 C70.0257961,5.59632853 70.2980247,5.76465309 70.5473982,5.99740165 L72.1932547,7.48116629 C72.309629,7.59754057 72.4135331,7.70975695 72.50497,7.81781878 C72.5964069,7.92588061 72.6712179,8.04017506 72.729405,8.16070557 C72.7875921,8.28123607 72.8312318,8.41423325 72.8603254,8.5597011 C72.889419,8.70516895 72.9039655,8.87349351 72.9039655,9.06467983 L72.9039655,18.278983 L71.0087367,18.278983 Z M84.7242083,18.278983 L79.4375174,18.278983 C79.0551448,18.278983 78.6831683,18.2166406 78.3215768,18.0919538 C77.9599853,17.9672671 77.567228,17.7303659 77.1432931,17.381243 L75.8590262,16.3338797 C75.6013403,16.1260685 75.4060007,15.8538399 75.2730015,15.5171858 C75.1400024,15.1805316 75.0735038,14.7129634 75.0735038,14.1144671 L75.0735038,9.48861258 C75.0735038,8.89011629 75.1400024,8.42462615 75.2730015,8.09212821 C75.4060007,7.75963027 75.6013403,7.48532358 75.8590262,7.26919992 L77.1432931,6.22183664 C77.5589155,5.88102624 77.9454386,5.64828118 78.3028739,5.52359445 C78.6603092,5.39890772 79.0302076,5.33656529 79.4125802,5.33656529 L83.8015311,5.33656529 L83.8015311,0 L85.6967599,0 L85.6967599,17.2316197 L84.7242083,18.278983 Z M83.8015311,6.94501604 L80.285383,6.94501604 C79.8365107,6.94501604 79.4749246,6.99696807 79.2006138,7.10087367 C78.926303,7.20477928 78.6727772,7.34816687 78.4400286,7.53104074 L77.754255,8.04225377 C77.679443,8.10044091 77.5942417,8.1773299 77.4986485,8.27292306 C77.4030553,8.36851622 77.3157759,8.48904492 77.2368077,8.63451277 C77.1578394,8.77998061 77.0913408,8.95453942 77.0373099,9.15819441 C76.983279,9.3618494 76.956264,9.59251638 76.956264,9.85020229 L76.956264,13.765346 C76.956264,14.0230319 76.983279,14.2516208 77.0373099,14.4511196 C77.0913408,14.6506183 77.1578394,14.823099 77.2368077,14.9685669 C77.3157759,15.1140347 77.4030553,15.2366415 77.4986485,15.3363909 C77.5942417,15.4361403 77.679443,15.5151074 77.754255,15.5732945 L78.4400286,16.0845075 C78.6727772,16.2673814 78.926303,16.410769 79.2006138,16.5146746 C79.4749246,16.6185802 79.8365107,16.6705322 80.285383,16.6705322 L83.8015311,16.6705322 L83.8015311,6.94501604 Z" id="HMLand"></path>
                </g>
            </g>
            <g id="aerial" transform="translate(114.000000, 0.000000)">
                <polyline id="Fill-16" fill="#1A1919" points="10.4712644 22.8334928 7.85249042 18.3043062 10.4712644 13.7751196 15.704023 13.7751196 18.3218391 18.3043062 15.704023 22.8334928 10.4712644 22.8334928"></polyline>
                <polyline id="Fill-17" fill="#1A1919" points="26.1752874 13.7751196 23.559387 9.24593301 23.5574713 9.24593301 26.1752874 4.7138756 31.4118774 4.7138756 34.0277778 9.24401914 31.4118774 13.7751196 26.1752874 13.7751196"></polyline>
                <polyline id="Fill-18" fill="#1A1919" points="10.4712644 40.9559809 7.85249042 36.4229665 10.4712644 31.8947368 15.704023 31.8947368 18.3218391 36.4229665 15.704023 40.9559809 10.4712644 40.9559809"></polyline>
                <polyline id="Fill-19" fill="#1A1919" points="41.8840996 22.8334928 39.2643678 18.3043062 41.8840996 13.7751196 47.1187739 13.7751196 49.7346743 18.3043062 47.1168582 22.8334928 41.8840996 22.8334928"></polyline>
                <polyline id="Fill-20" fill="#1A1919" points="26.1752874 50.015311 23.559387 45.4842105 23.5574713 45.4842105 26.1752874 40.9559809 31.4118774 40.9559809 34.0296935 45.4842105 31.4118774 50.015311 26.1752874 50.015311"></polyline>
                <polyline id="Fill-21" fill="#1A1919" points="41.8840996 40.9559809 39.2643678 36.4229665 41.8840996 31.8947368 47.1187739 31.8947368 49.7346743 36.4229665 47.1168582 40.9559809 41.8840996 40.9559809"></polyline>
                <polyline id="Fill-22" fill="#595A59" points="18.3218391 27.3636364 15.704023 22.8334928 18.3218391 18.3043062 23.5574713 18.3043062 26.1752874 22.8334928 23.5574713 27.3636364 18.3218391 27.3636364"></polyline>
                <polyline id="Fill-23" fill="#595A59" points="34.0296935 27.3636364 31.4118774 22.8334928 34.0296935 18.3043062 39.2643678 18.3043062 41.8812261 22.8334928 39.2643678 27.3636364 34.0296935 27.3636364"></polyline>
                <polyline id="Fill-24" fill="#595A59" points="31.4118774 40.9559809 26.1752874 40.9559809 23.559387 36.4229665 23.5574713 36.4229665 26.1752874 31.8947368 31.4118774 31.8947368 34.0296935 36.4229665 31.4118774 40.9559809"></polyline>
                <g id="Group-30" transform="translate(14.783525, 0.000000)" fill="#595A59">
                    <polyline id="Fill-25" points="11.3917625 40.9559809 16.6283525 40.9559809 11.3917625 40.9559809"></polyline>
                    <polyline id="Fill-27" points="3.53831418 9.24593301 0.920498084 4.7138756 3.53831418 0.184688995 8.77586207 0.184688995 11.3917625 4.7138756 8.77394636 9.24593301 3.53831418 9.24593301"></polyline>
                    <polyline id="Fill-28" points="8.77394636 9.24593301 11.3917625 4.7138756 8.77394636 9.24593301"></polyline>
                    <polyline id="Fill-29" points="19.2461686 9.2430622 16.6283525 4.7138756 19.2461686 0.184688995 24.4808429 0.184688995 27.0977011 4.7138756 24.4808429 9.2430622 19.2461686 9.2430622"></polyline>
                </g>
                <polyline id="Fill-31" fill="#595A59" points="2.61685824 36.4229665 3.69482223e-13 31.8947368 2.61685824 27.3655502 7.85249042 27.3655502 10.4712644 31.8947368 7.84961686 36.4229665 2.61685824 36.4229665"></polyline>
                <polyline id="Fill-32" fill="#595A59" points="10.4712644 50.015311 7.85249042 45.4842105 10.4712644 40.9559809 15.704023 40.9559809 18.3218391 45.4842105 15.704023 50.015311 10.4712644 50.015311"></polyline>
                <polyline id="Fill-33" fill="#595A59" points="49.7346743 36.4229665 47.1187739 31.8947368 49.7346743 27.3636364 54.9731801 27.3636364 57.5871648 31.8947368 54.9693487 36.4229665 49.7346743 36.4229665"></polyline>
                <polyline id="Fill-34" fill="#595A59" points="47.1187739 31.8947368 49.7346743 36.4229665 47.1187739 31.8947368"></polyline>
                <polyline id="Fill-35" fill="#595A59" points="41.8840996 50.015311 39.2643678 45.4842105 41.8840996 40.9559809 47.1187739 40.9559809 49.7346743 45.4842105 47.1168582 50.015311 41.8840996 50.015311"></polyline>
                <polyline id="Fill-36" fill="#B4B5B4" points="18.3218391 18.3043062 15.704023 13.7751196 18.3218391 9.24593301 23.5574713 9.24593301 26.1752874 13.7751196 23.5574713 18.3043062 18.3218391 18.3043062"></polyline>
                <polyline id="Fill-37" fill="#1A1919" points="15.704023 13.7751196 18.3218391 18.3043062 15.704023 13.7751196"></polyline>
                <polyline id="Fill-38" fill="#1A1919" points="23.5574713 9.24593301 23.559387 9.24593301 26.1752874 13.7751196 23.5574713 9.24593301"></polyline>
                <polyline id="Fill-39" fill="#B4B5B4" points="15.704023 31.8947368 10.4712644 31.8947368 7.85249042 27.3655502 10.4712644 22.8334928 15.704023 22.8334928 18.3218391 27.3636364 15.704023 31.8947368"></polyline>
                <polyline id="Fill-40" fill="#1A1919" points="10.4712644 31.8947368 15.704023 31.8947368 10.4712644 31.8947368"></polyline>
                <polyline id="Fill-41" fill="#B4B5B4" points="39.2643678 18.3043062 34.0296935 18.3043062 31.4118774 13.7751196 34.0296935 9.24593301 34.0277778 9.24401914 34.0296935 9.2430622 39.2643678 9.2430622 41.8812261 13.7751196 39.2643678 18.3043062"></polyline>
                <polyline id="Fill-42" fill="#1A1919" points="34.0277778 9.24401914 34.0296935 9.24593301 31.4118774 13.7751196 34.0277778 9.24401914"></polyline>
                <polyline id="Fill-43" fill="#B4B5B4" points="18.3218391 45.4842105 15.704023 40.9559809 18.3218391 36.4229665 23.5574713 36.4229665 26.1752874 40.9559809 23.5574713 45.4842105 18.3218391 45.4842105"></polyline>
                <polyline id="Fill-44" fill="#1A1919" points="23.5574713 45.4842105 26.1752874 40.9559809 23.5574713 45.4842105"></polyline>
                <polyline id="Fill-45" fill="#B4B5B4" points="41.8840996 31.8947368 39.2643678 27.3636364 41.8840996 22.8334928 47.1187739 22.8334928 49.7346743 27.3636364 47.1168582 31.8947368 41.8840996 31.8947368"></polyline>
                <polyline id="Fill-46" fill="#1A1919" points="41.8840996 31.8947368 47.1168582 31.8947368 41.8840996 31.8947368"></polyline>
                <polyline id="Fill-47" fill="#B4B5B4" points="34.0296935 45.4842105 31.4118774 40.9559809 34.0296935 36.4229665 39.2643678 36.4229665 41.8812261 40.9559809 39.2643678 45.4842105 34.0296935 45.4842105"></polyline>
                <polyline id="Fill-48" fill="#1A1919" points="31.4118774 40.9559809 34.0296935 45.4842105 31.4118774 40.9559809"></polyline>
                <polyline id="Fill-49" fill="#8A8B8A" points="15.704023 13.7751196 10.4712644 13.7751196 7.85249042 9.24593301 10.4712644 4.7138756 15.704023 4.7138756 18.3218391 9.24593301 15.704023 13.7751196"></polyline>
                <polyline id="Fill-50" fill="#8A8B8A" points="10.4712644 13.7751196 15.704023 13.7751196 10.4712644 13.7751196"></polyline>
                <polyline id="Fill-51" fill="#8A8B8A" points="15.704023 13.7751196 18.3218391 9.24593301 15.704023 13.7751196"></polyline>
                <polyline id="Fill-52" fill="#8A8B8A" points="2.61685824 27.3655502 3.69482223e-13 22.8334928 2.61685824 18.3043062 7.85249042 18.3043062 10.4712644 22.8334928 7.84961686 27.3655502 2.61685824 27.3655502"></polyline>
                <polyline id="Fill-53" fill="#8A8B8A" points="2.61685824 27.3655502 7.84961686 27.3655502 2.61685824 27.3655502"></polyline>
                <polyline id="Fill-54" fill="#8A8B8A" points="41.8840996 13.7751196 39.2643678 9.2430622 41.8840996 4.7138756 47.1187739 4.7138756 49.7346743 9.2430622 47.1168582 13.7751196 41.8840996 13.7751196"></polyline>
                <polyline id="Fill-55" fill="#8A8B8A" points="41.8840996 13.7751196 47.1168582 13.7751196 41.8840996 13.7751196"></polyline>
                <polyline id="Fill-56" fill="#8A8B8A" points="49.7346743 27.3636364 47.1187739 22.8334928 49.7346743 18.3043062 54.9731801 18.3043062 57.5871648 22.8334928 54.9693487 27.3636364 49.7346743 27.3636364"></polyline>
                <polyline id="Fill-57" fill="#8A8B8A" points="49.7346743 27.3636364 54.9693487 27.3636364 49.7346743 27.3636364"></polyline>
                <polyline id="Fill-58" fill="#8A8B8A" points="47.1187739 22.8334928 49.7346743 27.3636364 47.1187739 22.8334928"></polyline>
                <polyline id="Fill-59" fill="#8A8B8A" points="18.3218391 54.5454545 15.704023 50.015311 18.3218391 45.4842105 23.5574713 45.4842105 26.1752874 50.015311 23.5574713 54.5454545 18.3218391 54.5454545"></polyline>
                <polyline id="Fill-60" fill="#8A8B8A" points="23.5574713 45.4842105 23.559387 45.4842105 26.1752874 50.015311 23.5574713 45.4842105"></polyline>
                <polyline id="Fill-61" fill="#8A8B8A" points="34.0296935 54.5454545 31.4118774 50.015311 34.0296935 45.4842105 39.2643678 45.4842105 41.8812261 50.015311 39.2643678 54.5454545 34.0296935 54.5454545"></polyline>
                <polyline id="Fill-62" fill="#8A8B8A" points="26.1752874 22.8334928 23.559387 18.3043062 23.5574713 18.3043062 26.1752874 13.7751196 31.4118774 13.7751196 34.0296935 18.3043062 31.4118774 22.8334928 26.1752874 22.8334928"></polyline>
                <polyline id="Fill-63" fill="#8A8B8A" points="23.5574713 18.3043062 23.559387 18.3043062 26.1752874 22.8334928 23.5574713 18.3043062"></polyline>
                <polyline id="Fill-64" fill="#8A8B8A" points="31.4118774 22.8334928 34.0296935 18.3043062 31.4118774 22.8334928"></polyline>
                <polyline id="Fill-65" fill="#8A8B8A" points="18.3218391 36.4229665 15.704023 31.8947368 18.3218391 27.3655502 18.3218391 27.3636364 23.559387 27.3636364 26.1752874 31.8947368 23.5574713 36.4229665 18.3218391 36.4229665"></polyline>
                <polyline id="Fill-66" fill="#8A8B8A" points="15.704023 31.8947368 18.3218391 36.4229665 15.704023 31.8947368"></polyline>
                <polyline id="Fill-67" fill="#8A8B8A" points="23.5574713 36.4229665 26.1752874 31.8947368 23.5574713 36.4229665"></polyline>
                <polyline id="Fill-68" fill="#8A8B8A" points="18.3218391 27.3636364 18.3218391 27.3655502 15.704023 31.8947368 18.3218391 27.3636364"></polyline>
                <polyline id="Fill-69" fill="#8A8B8A" points="18.3218391 36.4229665 23.5574713 36.4229665 18.3218391 36.4229665"></polyline>
                <polyline id="Fill-70" fill="#8A8B8A" points="39.2643678 36.4229665 34.0296935 36.4229665 31.4118774 31.8947368 34.0296935 27.3636364 39.2643678 27.3636364 41.8812261 31.8947368 39.2643678 36.4229665"></polyline>
                <polyline id="Fill-71" fill="#8A8B8A" points="31.4118774 31.8947368 34.0296935 36.4229665 31.4118774 31.8947368"></polyline>
                <polyline id="Fill-72" fill="#8A8B8A" points="34.0296935 36.4229665 39.2643678 36.4229665 34.0296935 36.4229665"></polyline>
            </g>
        </g>
    </g>
</svg>